<?xml version="1.0" encoding="utf-8"?>
<!-- Generator: Adobe Illustrator 26.1.0, SVG Export Plug-In . SVG Version: 6.00 Build 0)  -->
<svg version="1.1" xmlns="http://www.w3.org/2000/svg" xmlns:xlink="http://www.w3.org/1999/xlink" x="0px" y="0px"
	 viewBox="0 0 975.36 1016.65" style="enable-background:new 0 0 975.36 1016.65;" xml:space="preserve">
<style type="text/css">
	.st0{fill:#EAF9CF;}
	.st1{fill:#B4D068;}
	.st2{fill:#FFFE85;}
	.st3{fill:#C1D601;}
	.st4{fill:#D3E901;}
	.st5{fill:#DDF7A5;}
	.st6{fill:#92AE63;}
	.st7{fill:#CCA370;}
	.st8{fill:#E6A473;}
	.st9{fill:#AAB53B;}
	.st10{fill:#BCC964;}
	.st11{fill:#A6C570;}
	.st12{fill:#E99662;}
	.st13{fill:#77984A;}
	.st14{fill:#506B0B;}
	.st15{fill:#82461F;}
	.st16{fill:#B0BF88;}
	.st17{fill:#A1AD00;}
	.st18{fill:#DADA23;}
	.st19{fill:#F2FE84;}
	.st20{fill:#594A33;}
	.st21{fill:#D4814C;}
	.st22{fill:#B24100;}
	.st23{fill:#C1D58D;}
	.st24{fill:#D7E7A4;}
	.st25{fill:#C9E166;}
	.st26{fill:#CAC034;}
	.st27{fill:#FFFFFF;}
</style>
<g id="Layer_1">
</g>
<g id="Layer_2">
	<g>
	</g>
	<g>
		<g>
			<polygon class="st0" points="630.89,130.59 607.79,170.61 653.99,170.61 			"/>
			<polygon class="st1" points="630.89,210.62 607.79,250.63 653.99,250.63 			"/>
			<polygon class="st2" points="584.68,290.65 607.79,330.66 630.89,290.65 			"/>
			<polygon class="st3" points="607.79,250.64 584.68,290.65 630.89,290.65 			"/>
			<polygon class="st4" points="630.89,370.68 607.79,410.69 653.99,410.69 			"/>
			<polygon class="st5" points="584.68,370.68 607.79,410.69 630.89,370.68 			"/>
			<polygon class="st1" points="607.79,330.66 584.68,370.68 630.89,370.68 			"/>
			<polygon class="st3" points="653.99,410.69 607.79,410.69 630.89,450.71 			"/>
			<polygon class="st1" points="630.89,450.71 607.79,490.72 653.99,490.72 			"/>
			<polygon class="st6" points="584.68,450.71 607.79,490.72 630.89,450.71 			"/>
			<polygon class="st1" points="607.79,410.69 584.68,450.71 630.89,450.71 			"/>
			<polygon class="st5" points="653.99,490.72 607.79,490.72 630.89,530.73 			"/>
			<polygon class="st7" points="630.89,530.73 607.79,570.74 653.99,570.74 			"/>
			<polygon class="st8" points="584.76,130.72 538.56,130.72 561.66,170.74 			"/>
			<polygon class="st9" points="515.45,170.74 538.56,210.75 561.66,170.74 			"/>
			<polygon class="st5" points="584.76,210.75 538.56,210.75 561.66,250.76 			"/>
			<polygon class="st5" points="515.45,250.76 538.56,290.78 561.66,250.76 			"/>
			<polygon class="st4" points="584.76,290.78 538.56,290.78 561.66,330.79 			"/>
			<polygon class="st6" points="584.76,370.8 607.86,330.79 561.66,330.79 			"/>
			<polygon class="st1" points="561.66,330.79 538.56,370.8 584.76,370.8 			"/>
			<polygon class="st1" points="538.56,290.78 515.45,330.79 561.66,330.79 			"/>
			<polygon class="st5" points="584.76,370.81 538.56,370.81 561.66,410.82 			"/>
			<polygon class="st10" points="607.86,410.82 584.76,370.81 561.66,410.82 			"/>
			<polygon class="st2" points="584.76,450.83 607.86,410.82 561.66,410.82 			"/>
			<polygon class="st11" points="561.66,410.82 538.56,450.83 584.76,450.83 			"/>
			<polygon class="st12" points="515.45,410.82 538.56,450.83 561.66,410.82 			"/>
			<polygon class="st1" points="538.56,370.81 515.45,410.82 561.66,410.82 			"/>
			<polygon class="st6" points="584.76,450.83 538.56,450.83 561.66,490.85 			"/>
			<polygon class="st13" points="607.86,490.85 584.76,450.83 561.66,490.85 			"/>
			<polygon class="st12" points="515.45,490.85 538.56,530.86 561.66,490.85 			"/>
			<polygon class="st13" points="538.56,450.83 515.45,490.85 561.66,490.85 			"/>
			<g>
				<polygon class="st5" points="677,450.4 746.34,570.49 815.67,450.4 				"/>
				<polygon class="st1" points="746.34,330.31 677,450.4 815.67,450.4 				"/>
				<polygon class="st14" points="677.22,450.77 746.56,330.69 607.89,330.69 				"/>
				<polygon class="st1" points="607.89,330.69 538.56,450.77 677.22,450.77 				"/>
				<polygon class="st6" points="677.22,450.79 538.56,450.79 607.89,570.87 				"/>
				<polygon class="st1" points="746.56,570.87 677.22,450.79 607.89,570.87 				"/>
			</g>
			<polygon class="st15" points="538.56,530.86 515.45,570.87 561.66,570.87 			"/>
			<polygon class="st5" points="515.27,170.61 469.07,170.61 492.17,210.62 			"/>
			<polygon class="st2" points="515.27,250.63 538.37,210.62 492.17,210.62 			"/>
			<polygon class="st0" points="469.07,170.61 445.97,210.62 492.17,210.62 			"/>
			<polygon class="st8" points="515.27,250.64 469.07,250.64 492.17,290.65 			"/>
			<polygon class="st0" points="515.27,93.03 469.07,93.03 492.17,133.04 			"/>
			<polygon class="st2" points="515.27,330.66 538.37,290.65 492.17,290.65 			"/>
			<polygon class="st1" points="492.17,290.65 469.07,330.66 515.27,330.66 			"/>
			<polygon class="st13" points="445.97,290.65 469.07,330.66 492.17,290.65 			"/>
			<polygon class="st16" points="469.07,250.64 445.97,290.65 492.17,290.65 			"/>
			<polygon class="st17" points="515.27,330.66 469.07,330.66 492.17,370.68 			"/>
			<polygon class="st10" points="538.37,370.68 515.27,330.66 492.17,370.68 			"/>
			<polygon class="st2" points="515.27,410.69 538.37,370.68 492.17,370.68 			"/>
			<polygon class="st4" points="492.17,370.68 469.07,410.69 515.27,410.69 			"/>
			<polygon class="st12" points="445.97,370.68 469.07,410.69 492.17,370.68 			"/>
			<polygon class="st14" points="469.07,330.66 445.97,370.68 492.17,370.68 			"/>
			<polygon class="st17" points="515.27,410.69 469.07,410.69 492.17,450.71 			"/>
			<polygon class="st13" points="538.37,450.71 515.27,410.69 492.17,450.71 			"/>
			<polygon class="st14" points="515.27,490.72 538.37,450.71 492.17,450.71 			"/>
			<polygon class="st4" points="492.17,450.71 469.07,490.72 515.27,490.72 			"/>
			<polygon class="st18" points="445.97,450.71 469.07,490.72 492.17,450.71 			"/>
			<polygon class="st19" points="469.07,410.69 445.97,450.71 492.17,450.71 			"/>
			<polygon class="st5" points="515.27,490.72 469.07,490.72 492.17,530.73 			"/>
			<polygon class="st17" points="538.37,530.73 515.27,490.72 492.17,530.73 			"/>
			<polygon class="st20" points="515.27,570.74 538.37,530.73 492.17,530.73 			"/>
			<polygon class="st21" points="492.17,530.73 469.07,570.74 515.27,570.74 			"/>
			<polygon class="st22" points="445.97,530.73 469.07,570.74 492.17,530.73 			"/>
			<polygon class="st1" points="469.07,490.72 445.97,530.73 492.17,530.73 			"/>
			<polygon class="st12" points="422.94,170.74 399.84,210.75 446.04,210.75 			"/>
			<polygon class="st0" points="469.14,250.76 446.04,210.75 422.94,250.76 			"/>
			<polygon class="st23" points="422.94,250.76 399.84,290.78 446.04,290.78 			"/>
			<polygon class="st24" points="376.74,250.76 399.84,290.78 422.94,250.76 			"/>
			<polygon class="st5" points="446.04,290.78 399.84,290.78 422.94,330.79 			"/>
			<polygon class="st25" points="469.14,330.79 446.04,290.78 422.94,330.79 			"/>
			<polygon class="st3" points="446.04,370.8 469.14,330.79 422.94,330.79 			"/>
			<polygon class="st13" points="422.94,330.79 399.84,370.8 446.04,370.8 			"/>
			<polygon class="st17" points="376.74,330.79 399.84,370.8 422.94,330.79 			"/>
			<polygon class="st0" points="399.84,290.78 376.74,330.79 422.94,330.79 			"/>
			<polygon class="st26" points="446.04,370.81 399.84,370.81 422.94,410.82 			"/>
			<polygon class="st3" points="469.14,410.82 446.04,370.81 422.94,410.82 			"/>
			<polygon class="st4" points="446.04,450.83 469.14,410.82 422.94,410.82 			"/>
			<polygon class="st16" points="446.36,371.09 354.12,371.09 400.24,450.97 			"/>
			<polygon class="st25" points="492.48,450.97 446.36,371.09 400.24,450.97 			"/>
			<polygon class="st17" points="446.36,530.86 492.48,450.97 400.24,450.97 			"/>
			<polygon class="st5" points="400.24,450.97 354.12,530.86 446.36,530.86 			"/>
			<polygon class="st14" points="308,450.97 354.12,530.86 400.24,450.97 			"/>
			<polygon class="st13" points="354.12,371.09 308,450.97 400.24,450.97 			"/>
			<polygon class="st12" points="446.04,530.86 399.84,530.86 422.94,570.87 			"/>
			<polygon class="st15" points="469.14,570.87 446.04,530.86 422.94,570.87 			"/>
			<polygon class="st21" points="399.84,530.86 376.74,570.87 422.94,570.87 			"/>
			<polygon class="st14" points="469.35,729.73 584.27,928.77 699.19,729.73 			"/>
			<polygon class="st16" points="584.27,530.67 469.35,729.73 699.19,729.73 			"/>
			<polygon class="st14" points="469.71,730.34 584.63,531.29 354.78,531.29 			"/>
			<polygon class="st1" points="354.78,531.29 239.87,730.34 469.71,730.34 			"/>
			<polygon class="st6" points="469.71,730.36 239.87,730.36 354.78,929.41 			"/>
			<polygon class="st13" points="584.63,929.41 469.71,730.36 354.78,929.41 			"/>
		</g>
	</g>
	<g>
		<path class="st27" d="M80.98,335.66H69.52v-22.12c0-2.69,0.06-5.14,0.17-7.37c-0.71,0.86-1.58,1.75-2.63,2.69l-4.74,3.92
			l-5.86-7.2l14.34-11.69h10.17V335.66z"/>
	</g>
	<g>
		<path class="st27" d="M60.45,368.34l-0.18-0.86h-0.05c-0.3,0.38-0.6,0.64-0.9,0.77c-0.3,0.13-0.68,0.2-1.13,0.2
			c-0.6,0-1.07-0.16-1.41-0.47c-0.34-0.31-0.51-0.75-0.51-1.32c0-1.23,0.98-1.87,2.94-1.93l1.03-0.03v-0.38
			c0-0.48-0.1-0.83-0.31-1.06c-0.21-0.23-0.53-0.34-0.98-0.34c-0.51,0-1.08,0.15-1.72,0.46l-0.28-0.7c0.3-0.16,0.63-0.29,0.98-0.38
			c0.36-0.09,0.71-0.14,1.07-0.14c0.72,0,1.26,0.16,1.61,0.48c0.35,0.32,0.52,0.84,0.52,1.54v4.14H60.45z M58.37,367.69
			c0.57,0,1.02-0.16,1.35-0.47c0.33-0.31,0.49-0.75,0.49-1.32v-0.55l-0.92,0.04c-0.73,0.03-1.26,0.14-1.58,0.34
			c-0.32,0.2-0.48,0.51-0.48,0.94c0,0.33,0.1,0.59,0.3,0.76C57.72,367.6,58.01,367.69,58.37,367.69z"/>
		<path class="st27" d="M67.18,368.34v-3.93c0-0.5-0.11-0.86-0.34-1.11c-0.23-0.24-0.58-0.37-1.06-0.37c-0.64,0-1.1,0.17-1.4,0.51
			c-0.29,0.34-0.44,0.91-0.44,1.7v3.19h-0.92v-6.07h0.75l0.15,0.83h0.04c0.19-0.3,0.45-0.53,0.79-0.7c0.34-0.17,0.72-0.25,1.14-0.25
			c0.73,0,1.28,0.18,1.65,0.53c0.37,0.35,0.55,0.92,0.55,1.69v3.96H67.18z"/>
		<path class="st27" d="M71.95,367.69c0.16,0,0.32-0.01,0.47-0.04c0.15-0.02,0.27-0.05,0.36-0.08v0.7c-0.1,0.05-0.25,0.09-0.44,0.12
			c-0.19,0.03-0.37,0.05-0.52,0.05c-1.17,0-1.76-0.62-1.76-1.86v-3.61h-0.87v-0.44l0.87-0.38l0.39-1.3h0.53v1.41h1.76v0.71h-1.76
			v3.57c0,0.37,0.09,0.65,0.26,0.84C71.41,367.59,71.64,367.69,71.95,367.69z"/>
		<path class="st27" d="M73.91,360.62c0-0.21,0.05-0.37,0.16-0.46c0.1-0.1,0.23-0.15,0.39-0.15c0.15,0,0.28,0.05,0.38,0.15
			c0.11,0.1,0.16,0.25,0.16,0.46c0,0.21-0.05,0.36-0.16,0.46c-0.11,0.1-0.24,0.15-0.38,0.15c-0.16,0-0.29-0.05-0.39-0.15
			C73.97,360.98,73.91,360.83,73.91,360.62z M74.91,368.34h-0.92v-6.07h0.92V368.34z"/>
		<path class="st27" d="M77.73,362.27v3.94c0,0.49,0.11,0.86,0.34,1.11c0.23,0.24,0.58,0.37,1.06,0.37c0.64,0,1.1-0.17,1.39-0.52
			c0.29-0.35,0.44-0.91,0.44-1.7v-3.19h0.92v6.07h-0.76l-0.13-0.81h-0.05c-0.19,0.3-0.45,0.53-0.78,0.69
			c-0.34,0.16-0.72,0.24-1.14,0.24c-0.74,0-1.29-0.18-1.66-0.53c-0.37-0.35-0.55-0.91-0.55-1.68v-3.97H77.73z"/>
		<path class="st27" d="M91.56,368.34v-3.95c0-0.48-0.1-0.85-0.31-1.09c-0.21-0.24-0.53-0.36-0.96-0.36c-0.57,0-1,0.16-1.27,0.49
			c-0.27,0.33-0.41,0.83-0.41,1.52v3.39h-0.92v-3.95c0-0.48-0.1-0.85-0.31-1.09c-0.21-0.24-0.53-0.36-0.97-0.36
			c-0.58,0-1,0.17-1.27,0.52c-0.27,0.34-0.4,0.91-0.4,1.7v3.19h-0.92v-6.07h0.75l0.15,0.83h0.04c0.17-0.3,0.42-0.53,0.73-0.69
			c0.32-0.17,0.67-0.25,1.06-0.25c0.95,0,1.57,0.34,1.86,1.03h0.04c0.18-0.32,0.44-0.57,0.79-0.75c0.34-0.18,0.74-0.28,1.17-0.28
			c0.69,0,1.2,0.18,1.54,0.53c0.34,0.35,0.51,0.92,0.51,1.69v3.96H91.56z"/>
		<path class="st27" d="M95.34,367.02l0.08,0.13c-0.1,0.37-0.23,0.8-0.42,1.29c-0.18,0.49-0.37,0.94-0.56,1.37h-0.69
			c0.1-0.38,0.21-0.86,0.33-1.42c0.12-0.57,0.21-1.02,0.25-1.36H95.34z"/>
		<path class="st27" d="M102.07,367.69c0.16,0,0.32-0.01,0.47-0.04c0.15-0.02,0.27-0.05,0.36-0.08v0.7
			c-0.1,0.05-0.25,0.09-0.44,0.12c-0.19,0.03-0.37,0.05-0.52,0.05c-1.17,0-1.76-0.62-1.76-1.86v-3.61H99.3v-0.44l0.87-0.38l0.39-1.3
			h0.53v1.41h1.76v0.71h-1.76v3.57c0,0.37,0.09,0.65,0.26,0.84C101.53,367.59,101.76,367.69,102.07,367.69z"/>
		<path class="st27" d="M109.35,365.3c0,0.99-0.25,1.76-0.75,2.32c-0.5,0.56-1.19,0.83-2.07,0.83c-0.54,0-1.03-0.13-1.45-0.38
			c-0.42-0.25-0.75-0.62-0.98-1.1c-0.23-0.48-0.34-1.03-0.34-1.67c0-0.99,0.25-1.76,0.74-2.31c0.5-0.55,1.18-0.83,2.06-0.83
			c0.85,0,1.52,0.28,2.03,0.85C109.1,363.57,109.35,364.33,109.35,365.3z M104.73,365.3c0,0.78,0.16,1.37,0.47,1.77
			c0.31,0.41,0.77,0.61,1.37,0.61c0.6,0,1.06-0.2,1.37-0.61s0.47-1,0.47-1.78c0-0.77-0.16-1.36-0.47-1.76
			c-0.31-0.4-0.77-0.6-1.38-0.6c-0.6,0-1.06,0.2-1.36,0.59C104.88,363.92,104.73,364.51,104.73,365.3z"/>
		<path class="st27" d="M112.93,367.69c0.16,0,0.32-0.01,0.47-0.04c0.15-0.02,0.27-0.05,0.36-0.08v0.7
			c-0.1,0.05-0.25,0.09-0.44,0.12c-0.19,0.03-0.37,0.05-0.52,0.05c-1.18,0-1.76-0.62-1.76-1.86v-3.61h-0.87v-0.44l0.87-0.38
			l0.39-1.3h0.53v1.41h1.76v0.71h-1.76v3.57c0,0.37,0.09,0.65,0.26,0.84C112.39,367.59,112.62,367.69,112.93,367.69z"/>
		<path class="st27" d="M118.7,368.34l-0.18-0.86h-0.04c-0.3,0.38-0.61,0.64-0.91,0.77c-0.3,0.13-0.68,0.2-1.13,0.2
			c-0.6,0-1.07-0.16-1.42-0.47c-0.34-0.31-0.51-0.75-0.51-1.32c0-1.23,0.98-1.87,2.94-1.93l1.03-0.03v-0.38
			c0-0.48-0.1-0.83-0.31-1.06c-0.2-0.23-0.53-0.34-0.98-0.34c-0.51,0-1.08,0.15-1.72,0.46l-0.28-0.7c0.3-0.16,0.63-0.29,0.98-0.38
			c0.36-0.09,0.71-0.14,1.07-0.14c0.72,0,1.26,0.16,1.61,0.48c0.35,0.32,0.52,0.84,0.52,1.54v4.14H118.7z M116.63,367.69
			c0.57,0,1.02-0.16,1.35-0.47c0.33-0.31,0.49-0.75,0.49-1.32v-0.55l-0.92,0.04c-0.73,0.03-1.26,0.14-1.58,0.34
			c-0.32,0.2-0.48,0.51-0.48,0.94c0,0.33,0.1,0.59,0.3,0.76C115.98,367.6,116.26,367.69,116.63,367.69z"/>
		<path class="st27" d="M129.02,368.34v-3.95c0-0.48-0.1-0.85-0.31-1.09c-0.21-0.24-0.53-0.36-0.96-0.36c-0.57,0-1,0.16-1.27,0.49
			c-0.27,0.33-0.41,0.83-0.41,1.52v3.39h-0.92v-3.95c0-0.48-0.1-0.85-0.31-1.09c-0.21-0.24-0.53-0.36-0.97-0.36
			c-0.58,0-1,0.17-1.27,0.52c-0.27,0.34-0.4,0.91-0.4,1.7v3.19h-0.92v-6.07h0.75l0.15,0.83h0.04c0.17-0.3,0.42-0.53,0.73-0.69
			c0.32-0.17,0.67-0.25,1.06-0.25c0.95,0,1.57,0.34,1.86,1.03h0.04c0.18-0.32,0.44-0.57,0.79-0.75c0.34-0.18,0.73-0.28,1.17-0.28
			c0.69,0,1.2,0.18,1.54,0.53c0.34,0.35,0.51,0.92,0.51,1.69v3.96H129.02z"/>
		<path class="st27" d="M58.29,382.9l0.08,0.13c-0.1,0.37-0.23,0.8-0.42,1.29c-0.18,0.49-0.37,0.94-0.57,1.37H56.7
			c0.1-0.38,0.21-0.86,0.33-1.42c0.12-0.57,0.2-1.02,0.25-1.36H58.29z"/>
		<path class="st27" d="M65.62,384.33c-0.9,0-1.61-0.27-2.12-0.82c-0.52-0.55-0.78-1.31-0.78-2.28c0-0.98,0.24-1.76,0.72-2.33
			c0.48-0.58,1.13-0.87,1.94-0.87c0.76,0,1.36,0.25,1.81,0.75c0.44,0.5,0.67,1.16,0.67,1.98v0.58h-4.18
			c0.02,0.71,0.2,1.25,0.54,1.62c0.34,0.37,0.82,0.55,1.44,0.55c0.65,0,1.3-0.14,1.94-0.41v0.82c-0.33,0.14-0.63,0.24-0.92,0.3
			C66.38,384.3,66.03,384.33,65.62,384.33z M65.37,378.81c-0.49,0-0.88,0.16-1.17,0.48c-0.29,0.32-0.46,0.76-0.51,1.32h3.17
			c0-0.58-0.13-1.02-0.39-1.33C66.22,378.96,65.85,378.81,65.37,378.81z"/>
		<path class="st27" d="M73.15,384.22l-0.18-0.87h-0.04c-0.3,0.38-0.6,0.64-0.91,0.77c-0.3,0.13-0.68,0.2-1.13,0.2
			c-0.6,0-1.07-0.16-1.42-0.47c-0.34-0.31-0.51-0.75-0.51-1.32c0-1.23,0.98-1.87,2.94-1.93l1.03-0.03v-0.38
			c0-0.48-0.1-0.83-0.31-1.05c-0.21-0.23-0.53-0.34-0.98-0.34c-0.51,0-1.08,0.16-1.72,0.47l-0.28-0.7c0.3-0.16,0.63-0.29,0.98-0.38
			c0.36-0.09,0.71-0.14,1.07-0.14c0.72,0,1.26,0.16,1.61,0.48c0.35,0.32,0.52,0.84,0.52,1.54v4.14H73.15z M71.08,383.57
			c0.57,0,1.02-0.16,1.35-0.47c0.33-0.31,0.49-0.75,0.49-1.32v-0.55L72,381.28c-0.73,0.03-1.26,0.14-1.58,0.34
			c-0.32,0.2-0.48,0.51-0.48,0.94c0,0.33,0.1,0.59,0.3,0.76C70.43,383.49,70.71,383.57,71.08,383.57z"/>
		<path class="st27" d="M77.89,384.33c-0.78,0-1.39-0.27-1.83-0.83c-0.44-0.55-0.66-1.32-0.66-2.3c0-0.99,0.22-1.77,0.67-2.33
			c0.44-0.56,1.06-0.84,1.85-0.84c0.83,0,1.47,0.31,1.92,0.94h0.05l0.13-0.83h0.73v8.8h-0.92v-2.6c0-0.37,0.02-0.68,0.06-0.94H79.8
			C79.38,384.02,78.74,384.33,77.89,384.33z M78.02,383.56c0.61,0,1.06-0.16,1.34-0.49c0.28-0.33,0.43-0.88,0.45-1.66v-0.21
			c0-0.85-0.14-1.46-0.43-1.83c-0.29-0.37-0.74-0.56-1.37-0.56c-0.54,0-0.95,0.21-1.24,0.63c-0.29,0.42-0.43,1.01-0.43,1.78
			c0,0.76,0.14,1.35,0.42,1.75C77.05,383.36,77.47,383.56,78.02,383.56z"/>
		<path class="st27" d="M83.55,378.15v3.94c0,0.49,0.11,0.86,0.34,1.11c0.23,0.24,0.58,0.37,1.06,0.37c0.64,0,1.1-0.17,1.39-0.52
			c0.29-0.35,0.44-0.91,0.44-1.7v-3.19h0.92v6.07h-0.76l-0.13-0.81h-0.05c-0.19,0.3-0.45,0.53-0.78,0.69
			c-0.33,0.16-0.72,0.24-1.14,0.24c-0.74,0-1.29-0.17-1.66-0.53c-0.37-0.35-0.55-0.91-0.55-1.68v-3.97H83.55z"/>
		<path class="st27" d="M92.21,384.33c-0.9,0-1.61-0.27-2.12-0.82c-0.52-0.55-0.78-1.31-0.78-2.28c0-0.98,0.24-1.76,0.72-2.33
			c0.48-0.58,1.13-0.87,1.94-0.87c0.76,0,1.36,0.25,1.81,0.75c0.44,0.5,0.67,1.16,0.67,1.98v0.58h-4.18
			c0.02,0.71,0.2,1.25,0.54,1.62c0.34,0.37,0.82,0.55,1.44,0.55c0.65,0,1.3-0.14,1.94-0.41v0.82c-0.33,0.14-0.63,0.24-0.92,0.3
			C92.97,384.3,92.62,384.33,92.21,384.33z M91.96,378.81c-0.49,0-0.88,0.16-1.17,0.48c-0.29,0.32-0.46,0.76-0.51,1.32h3.17
			c0-0.58-0.13-1.02-0.39-1.33C92.81,378.96,92.44,378.81,91.96,378.81z"/>
		<path class="st27" d="M98.88,376.51c0-0.21,0.05-0.36,0.15-0.46c0.1-0.1,0.23-0.15,0.39-0.15c0.15,0,0.27,0.05,0.38,0.15
			c0.11,0.1,0.16,0.25,0.16,0.46c0,0.21-0.05,0.36-0.16,0.46c-0.11,0.1-0.23,0.15-0.38,0.15c-0.16,0-0.29-0.05-0.39-0.15
			C98.93,376.87,98.88,376.71,98.88,376.51z M99.88,384.22h-0.92v-6.07h0.92V384.22z"/>
		<path class="st27" d="M104.65,384.33c-0.39,0-0.76-0.07-1.08-0.22c-0.33-0.15-0.6-0.37-0.82-0.67h-0.07
			c0.04,0.35,0.07,0.69,0.07,1.01v2.5h-0.92v-8.8h0.75l0.13,0.83h0.04c0.24-0.33,0.51-0.57,0.83-0.72c0.31-0.15,0.67-0.22,1.08-0.22
			c0.81,0,1.43,0.28,1.86,0.83c0.44,0.55,0.66,1.32,0.66,2.32c0,1-0.22,1.77-0.67,2.32C106.06,384.06,105.45,384.33,104.65,384.33z
			 M104.52,378.82c-0.62,0-1.07,0.17-1.35,0.52c-0.28,0.34-0.42,0.89-0.43,1.64v0.21c0,0.85,0.14,1.46,0.43,1.83
			c0.28,0.37,0.74,0.55,1.37,0.55c0.52,0,0.94-0.21,1.23-0.64c0.3-0.42,0.45-1.01,0.45-1.76c0-0.76-0.15-1.34-0.45-1.74
			C105.48,379.02,105.06,378.82,104.52,378.82z"/>
		<path class="st27" d="M112.7,382.57c0,0.56-0.21,1-0.63,1.31c-0.42,0.31-1.01,0.46-1.77,0.46c-0.81,0-1.43-0.13-1.88-0.38v-0.85
			c0.29,0.15,0.6,0.26,0.94,0.35c0.33,0.08,0.66,0.13,0.97,0.13c0.48,0,0.85-0.08,1.11-0.23c0.26-0.15,0.39-0.39,0.39-0.7
			c0-0.24-0.1-0.44-0.31-0.61c-0.21-0.17-0.6-0.37-1.2-0.6c-0.57-0.21-0.97-0.39-1.21-0.55c-0.24-0.16-0.42-0.33-0.53-0.53
			c-0.11-0.2-0.17-0.44-0.17-0.71c0-0.5,0.2-0.89,0.6-1.17c0.4-0.29,0.96-0.43,1.66-0.43c0.65,0,1.29,0.13,1.92,0.4l-0.33,0.75
			c-0.61-0.25-1.16-0.38-1.66-0.38c-0.44,0-0.76,0.07-0.99,0.21c-0.22,0.14-0.33,0.33-0.33,0.57c0,0.16,0.04,0.3,0.13,0.42
			c0.08,0.11,0.22,0.22,0.4,0.33c0.18,0.1,0.54,0.25,1.06,0.45c0.72,0.26,1.21,0.53,1.46,0.79
			C112.57,381.83,112.7,382.16,112.7,382.57z"/>
		<path class="st27" d="M117.93,384.22l-0.18-0.87h-0.05c-0.3,0.38-0.6,0.64-0.9,0.77c-0.3,0.13-0.68,0.2-1.13,0.2
			c-0.6,0-1.07-0.16-1.41-0.47c-0.34-0.31-0.51-0.75-0.51-1.32c0-1.23,0.98-1.87,2.94-1.93l1.03-0.03v-0.38
			c0-0.48-0.1-0.83-0.31-1.05c-0.21-0.23-0.53-0.34-0.98-0.34c-0.51,0-1.08,0.16-1.72,0.47l-0.28-0.7c0.3-0.16,0.63-0.29,0.98-0.38
			c0.36-0.09,0.71-0.14,1.07-0.14c0.72,0,1.26,0.16,1.61,0.48c0.35,0.32,0.53,0.84,0.53,1.54v4.14H117.93z M115.85,383.57
			c0.57,0,1.02-0.16,1.35-0.47c0.33-0.31,0.49-0.75,0.49-1.32v-0.55l-0.92,0.04c-0.73,0.03-1.26,0.14-1.58,0.34
			c-0.32,0.2-0.48,0.51-0.48,0.94c0,0.33,0.1,0.59,0.3,0.76C115.21,383.49,115.49,383.57,115.85,383.57z"/>
		<path class="st27" d="M51.53,400.11h-0.92v-6.07h0.92V400.11z"/>
		<path class="st27" d="M57.64,400.11v-3.93c0-0.5-0.11-0.86-0.34-1.11c-0.22-0.24-0.58-0.37-1.06-0.37c-0.64,0-1.1,0.17-1.4,0.52
			c-0.3,0.34-0.44,0.91-0.44,1.7v3.19h-0.92v-6.07h0.75l0.15,0.83h0.04c0.19-0.3,0.45-0.53,0.79-0.7c0.34-0.16,0.72-0.25,1.13-0.25
			c0.73,0,1.28,0.18,1.65,0.53c0.37,0.35,0.55,0.92,0.55,1.69v3.96H57.64z"/>
		<path class="st27" d="M61.78,400.11l-2.3-6.07h0.99l1.31,3.6c0.3,0.84,0.47,1.39,0.52,1.64h0.05c0.04-0.2,0.17-0.6,0.38-1.22
			c0.22-0.62,0.7-1.96,1.45-4.02h0.99l-2.3,6.07H61.78z"/>
		<path class="st27" d="M68.7,400.22c-0.9,0-1.61-0.27-2.12-0.82c-0.52-0.55-0.78-1.31-0.78-2.28c0-0.98,0.24-1.76,0.72-2.33
			c0.48-0.58,1.13-0.86,1.94-0.86c0.76,0,1.36,0.25,1.81,0.75c0.44,0.5,0.66,1.16,0.66,1.98v0.58h-4.18
			c0.02,0.71,0.2,1.25,0.54,1.62c0.34,0.37,0.82,0.55,1.44,0.55c0.65,0,1.3-0.14,1.94-0.41v0.82c-0.32,0.14-0.63,0.24-0.92,0.3
			C69.45,400.19,69.11,400.22,68.7,400.22z M68.45,394.69c-0.49,0-0.88,0.16-1.17,0.48c-0.29,0.32-0.46,0.76-0.51,1.32h3.17
			c0-0.58-0.13-1.02-0.39-1.33C69.29,394.85,68.93,394.69,68.45,394.69z"/>
		<path class="st27" d="M76.65,400.11v-3.93c0-0.5-0.11-0.86-0.34-1.11c-0.22-0.24-0.58-0.37-1.06-0.37c-0.64,0-1.1,0.17-1.4,0.52
			c-0.3,0.34-0.44,0.91-0.44,1.7v3.19H72.5v-6.07h0.75l0.15,0.83h0.04c0.19-0.3,0.45-0.53,0.79-0.7c0.34-0.16,0.72-0.25,1.14-0.25
			c0.73,0,1.28,0.18,1.65,0.53c0.37,0.35,0.55,0.92,0.55,1.69v3.96H76.65z"/>
		<path class="st27" d="M81.42,399.46c0.16,0,0.32-0.01,0.47-0.04c0.15-0.02,0.27-0.05,0.36-0.07v0.7c-0.1,0.05-0.25,0.09-0.44,0.12
			c-0.19,0.03-0.37,0.05-0.52,0.05c-1.17,0-1.76-0.62-1.76-1.86v-3.61h-0.87v-0.44l0.87-0.38l0.39-1.3h0.53v1.41h1.76v0.71h-1.76
			v3.57c0,0.37,0.09,0.65,0.26,0.84C80.88,399.36,81.12,399.46,81.42,399.46z"/>
		<path class="st27" d="M88.7,397.06c0,0.99-0.25,1.76-0.75,2.32c-0.5,0.56-1.19,0.83-2.07,0.83c-0.54,0-1.02-0.13-1.45-0.38
			c-0.42-0.25-0.75-0.62-0.97-1.1c-0.23-0.48-0.34-1.03-0.34-1.67c0-0.99,0.25-1.76,0.74-2.31c0.5-0.55,1.18-0.83,2.06-0.83
			c0.85,0,1.53,0.28,2.03,0.85C88.45,395.34,88.7,396.1,88.7,397.06z M84.08,397.06c0,0.78,0.15,1.37,0.47,1.77
			c0.31,0.41,0.77,0.61,1.37,0.61c0.6,0,1.06-0.2,1.37-0.61c0.31-0.4,0.47-1,0.47-1.78c0-0.77-0.16-1.36-0.47-1.76
			c-0.31-0.4-0.77-0.6-1.38-0.6c-0.6,0-1.06,0.2-1.36,0.59C84.23,395.69,84.08,396.28,84.08,397.06z"/>
		<path class="st27" d="M93.09,393.92c0.27,0,0.51,0.02,0.73,0.07l-0.13,0.85c-0.25-0.06-0.47-0.08-0.66-0.08
			c-0.49,0-0.91,0.2-1.26,0.6c-0.35,0.4-0.52,0.89-0.52,1.49v3.26h-0.92v-6.07h0.76l0.1,1.12h0.05c0.22-0.4,0.5-0.7,0.81-0.91
			C92.36,394.03,92.71,393.92,93.09,393.92z"/>
		<path class="st27" d="M97.51,400.22c-0.89,0-1.6-0.27-2.12-0.82c-0.52-0.55-0.78-1.31-0.78-2.28c0-0.98,0.24-1.76,0.72-2.33
			c0.48-0.58,1.13-0.86,1.94-0.86c0.76,0,1.36,0.25,1.81,0.75c0.44,0.5,0.66,1.16,0.66,1.98v0.58h-4.18
			c0.02,0.71,0.2,1.25,0.54,1.62c0.34,0.37,0.82,0.55,1.44,0.55c0.65,0,1.3-0.14,1.94-0.41v0.82c-0.32,0.14-0.63,0.24-0.92,0.3
			C98.27,400.19,97.92,400.22,97.51,400.22z M97.26,394.69c-0.49,0-0.88,0.16-1.17,0.48c-0.29,0.32-0.46,0.76-0.51,1.32h3.18
			c0-0.58-0.13-1.02-0.39-1.33C98.11,394.85,97.75,394.69,97.26,394.69z"/>
		<path class="st27" d="M105.59,400.11l-2.3-6.07h0.99l1.31,3.6c0.3,0.84,0.47,1.39,0.52,1.64h0.04c0.04-0.2,0.17-0.6,0.38-1.22
			c0.22-0.62,0.7-1.96,1.45-4.02h0.99l-2.3,6.07H105.59z"/>
		<path class="st27" d="M112.51,400.22c-0.9,0-1.61-0.27-2.12-0.82c-0.52-0.55-0.78-1.31-0.78-2.28c0-0.98,0.24-1.76,0.72-2.33
			c0.48-0.58,1.13-0.86,1.94-0.86c0.76,0,1.36,0.25,1.81,0.75c0.44,0.5,0.67,1.16,0.67,1.98v0.58h-4.18
			c0.02,0.71,0.2,1.25,0.54,1.62c0.34,0.37,0.82,0.55,1.44,0.55c0.65,0,1.3-0.14,1.94-0.41v0.82c-0.32,0.14-0.63,0.24-0.92,0.3
			C113.27,400.19,112.92,400.22,112.51,400.22z M112.26,394.69c-0.49,0-0.88,0.16-1.17,0.48c-0.29,0.32-0.46,0.76-0.51,1.32h3.17
			c0-0.58-0.13-1.02-0.39-1.33C113.11,394.85,112.74,394.69,112.26,394.69z"/>
		<path class="st27" d="M119.08,393.92c0.27,0,0.51,0.02,0.73,0.07l-0.13,0.85c-0.25-0.06-0.47-0.08-0.67-0.08
			c-0.49,0-0.91,0.2-1.26,0.6c-0.35,0.4-0.52,0.89-0.52,1.49v3.26h-0.92v-6.07h0.76l0.11,1.12h0.04c0.23-0.4,0.5-0.7,0.81-0.91
			C118.35,394.03,118.7,393.92,119.08,393.92z"/>
		<path class="st27" d="M120.87,392.39c0-0.21,0.05-0.36,0.15-0.46c0.1-0.1,0.23-0.15,0.39-0.15c0.15,0,0.27,0.05,0.38,0.15
			c0.11,0.1,0.16,0.25,0.16,0.46c0,0.21-0.05,0.36-0.16,0.46c-0.11,0.1-0.24,0.15-0.38,0.15c-0.16,0-0.29-0.05-0.39-0.15
			C120.91,392.75,120.87,392.6,120.87,392.39z M121.86,400.11h-0.92v-6.07h0.92V400.11z"/>
		<path class="st27" d="M125.77,399.46c0.16,0,0.32-0.01,0.47-0.04c0.15-0.02,0.27-0.05,0.36-0.07v0.7
			c-0.1,0.05-0.25,0.09-0.44,0.12c-0.19,0.03-0.37,0.05-0.52,0.05c-1.17,0-1.76-0.62-1.76-1.86v-3.61h-0.87v-0.44l0.87-0.38
			l0.39-1.3h0.53v1.41h1.76v0.71h-1.76v3.57c0,0.37,0.09,0.65,0.26,0.84C125.23,399.36,125.47,399.46,125.77,399.46z"/>
		<path class="st27" d="M131.55,400.11l-0.18-0.86h-0.04c-0.3,0.38-0.61,0.64-0.91,0.77c-0.3,0.13-0.67,0.2-1.13,0.2
			c-0.6,0-1.08-0.15-1.42-0.46c-0.34-0.31-0.51-0.75-0.51-1.32c0-1.23,0.98-1.87,2.94-1.93l1.03-0.03v-0.38
			c0-0.48-0.1-0.83-0.31-1.05c-0.2-0.23-0.53-0.34-0.98-0.34c-0.51,0-1.08,0.16-1.72,0.47l-0.28-0.7c0.3-0.16,0.63-0.29,0.98-0.38
			c0.36-0.09,0.72-0.14,1.07-0.14c0.73,0,1.26,0.16,1.61,0.48c0.35,0.32,0.52,0.84,0.52,1.55v4.14H131.55z M129.47,399.46
			c0.57,0,1.02-0.16,1.35-0.47c0.33-0.31,0.49-0.75,0.49-1.32v-0.55l-0.92,0.04c-0.73,0.03-1.26,0.14-1.58,0.34
			c-0.32,0.2-0.48,0.51-0.48,0.94c0,0.33,0.1,0.58,0.3,0.76C128.83,399.37,129.11,399.46,129.47,399.46z"/>
		<path class="st27" d="M136.09,399.46c0.16,0,0.32-0.01,0.47-0.04c0.15-0.02,0.27-0.05,0.36-0.07v0.7
			c-0.1,0.05-0.25,0.09-0.44,0.12c-0.19,0.03-0.37,0.05-0.52,0.05c-1.17,0-1.76-0.62-1.76-1.86v-3.61h-0.87v-0.44l0.87-0.38
			l0.39-1.3h0.53v1.41h1.76v0.71h-1.76v3.57c0,0.37,0.09,0.65,0.26,0.84C135.55,399.36,135.78,399.46,136.09,399.46z"/>
		<path class="st27" d="M138.05,392.39c0-0.21,0.05-0.36,0.16-0.46c0.1-0.1,0.23-0.15,0.39-0.15c0.15,0,0.28,0.05,0.38,0.15
			c0.11,0.1,0.16,0.25,0.16,0.46c0,0.21-0.05,0.36-0.16,0.46c-0.11,0.1-0.23,0.15-0.38,0.15c-0.15,0-0.28-0.05-0.39-0.15
			C138.11,392.75,138.05,392.6,138.05,392.39z M139.05,400.11h-0.92v-6.07h0.92V400.11z"/>
		<path class="st27" d="M144.92,398.45c0,0.57-0.21,1-0.63,1.31c-0.42,0.31-1.01,0.46-1.77,0.46c-0.81,0-1.43-0.13-1.88-0.38v-0.85
			c0.29,0.15,0.6,0.26,0.94,0.35c0.33,0.08,0.66,0.13,0.97,0.13c0.48,0,0.85-0.08,1.11-0.23c0.26-0.15,0.39-0.39,0.39-0.7
			c0-0.24-0.1-0.44-0.31-0.61c-0.2-0.17-0.6-0.37-1.2-0.6c-0.56-0.21-0.97-0.39-1.21-0.55c-0.24-0.16-0.42-0.33-0.53-0.53
			c-0.12-0.2-0.17-0.44-0.17-0.71c0-0.5,0.2-0.89,0.6-1.17c0.4-0.29,0.96-0.43,1.66-0.43c0.65,0,1.29,0.13,1.92,0.4l-0.33,0.75
			c-0.61-0.25-1.16-0.38-1.66-0.38c-0.44,0-0.76,0.07-0.99,0.21c-0.22,0.14-0.33,0.33-0.33,0.57c0,0.16,0.04,0.3,0.13,0.42
			c0.08,0.12,0.21,0.22,0.4,0.33c0.18,0.1,0.54,0.25,1.06,0.45c0.72,0.26,1.21,0.53,1.46,0.79
			C144.79,397.71,144.92,398.05,144.92,398.45z"/>
	</g>
</g>
</svg>
