<?xml version="1.0" encoding="utf-8"?>
<!-- Generator: Adobe Illustrator 26.0.2, SVG Export Plug-In . SVG Version: 6.00 Build 0)  -->
<svg version="1.1" id="Lager_1" xmlns="http://www.w3.org/2000/svg" xmlns:xlink="http://www.w3.org/1999/xlink" x="0px" y="0px"
	 viewBox="0 0 834 760" style="enable-background:new 0 0 834 760;" xml:space="preserve">
<style type="text/css">
	.st0{fill:#a08b62;}
</style>
<g>
	
		<rect x="-25" y="356.5" transform="matrix(0.7071 -0.7071 0.7071 0.7071 -146.447 392.4452)" class="st0" width="851" height="33"/>
	<path d="M689.71,61.17l22.63,22.63L111.29,684.83l-22.63-22.63L689.71,61.17 M689.71,59.75L87.25,662.21l24.04,24.04L713.75,83.79
		L689.71,59.75L689.71,59.75z"/>
</g>
<g>
	
		<rect x="384" y="-52.5" transform="matrix(0.7071 -0.7071 0.7071 0.7071 -146.447 392.4454)" class="st0" width="33" height="851"/>
	<path d="M111.29,61.17l601.04,601.04l-22.63,22.63L88.67,83.79L111.29,61.17 M111.29,59.75L87.25,83.79l602.45,602.45l24.04-24.04
		L111.29,59.75L111.29,59.75z"/>
</g>
</svg>
