<?xml version="1.0" encoding="utf-8"?>
<!-- Generator: Adobe Illustrator 26.0.1, SVG Export Plug-In . SVG Version: 6.00 Build 0)  -->
<svg version="1.1" id="Lager_1" xmlns="http://www.w3.org/2000/svg" xmlns:xlink="http://www.w3.org/1999/xlink" x="0px" y="0px"
	 viewBox="0 0 215.2 45.1" style="enable-background:new 0 0 215.2 45.1;" xml:space="preserve">
<style type="text/css">
	.st0{fill:#FFFFFF;}
</style>
<g id="Lager_2_00000178165029048633053030000000970906198769415861_">
</g>
<g id="Lager_1_00000149340933474016718490000014828240245175682186_">
	<g>
		<path class="st0" d="M38.8,10.4l-0.1,23l0.1,9h-15v-4.1c-2.5,1.7-4.7,2.9-6.8,3.7c-2,0.7-4.2,1.1-6.4,1.1c-4.1,0-7-1.2-8.9-3.6
			c-0.7-0.9-1.2-1.9-1.4-3.1s-0.4-2.8-0.4-4.9L0,24.6L0,20l-0.1-9.6h15l-0.2,14.7l0,5.6l0,3.8c0,2.2,0.1,3.6,0.4,4
			c0.3,0.5,1,0.8,1.9,0.8c0.9,0,1.9-0.2,2.9-0.7c1-0.5,2.3-1.4,3.9-2.6l0-3.8L24,21.6l-0.2-10.3v-0.9L38.8,10.4L38.8,10.4z"/>
		<path class="st0" d="M68.4,11.7c1.7,0.8,3.1,1.9,4.2,3.2c1.5,1.8,2.3,3.9,2.3,6.3c0,1.7-0.4,3.3-1.3,4.8c-0.9,1.5-2.1,2.8-3.6,3.8
			c-2.8,1.9-6.3,2.9-10.3,2.9c-1.9,0-3.6-0.2-5.1-0.5c-1.6-0.3-3-0.8-4.3-1.5c-0.9,0.6-1.4,1.3-1.4,1.9c0,0.8,0.5,1.2,1.6,1.3
			c2.2,0.3,3.8,0.4,4.6,0.3l0.2,0H64l0.4,0c2.9-0.2,5,0.3,6.3,1.5c1,0.9,1.5,2,1.5,3.2c0,1-0.3,2-1.1,2.8c-1.2,1.4-2.8,2.1-4.8,2.1
			c-0.4,0-0.8,0-1.4-0.1c0.3-0.5,0.5-0.9,0.5-1.1c0-0.6-0.6-0.9-1.6-0.9c-0.9,0-2.9,0.2-5.9,0.6c-2.1,0.3-3.8,0.4-5.2,0.4
			c-2.2,0-4-0.5-5.6-1.4c-0.9-0.5-1.6-1.2-2.2-2.2s-0.8-1.9-0.8-3c0-1.2,0.3-2.3,0.9-3.3s1.7-2.1,3.2-3.2c-1.4-0.9-2.5-2-3.2-3.4
			c-0.8-1.4-1.1-3-1.1-4.6c0-3.9,2-7.1,5.9-9.4c3-1.8,6.6-2.6,10.8-2.6c0.9,0,1.9,0,2.9,0.1c1.4,0.1,2.4,0.2,3,0.2
			c1.5,0,2.7-0.7,3.4-2c0.4-0.8,0.8-1.2,1.3-1.2c0.4,0,0.7,0.1,1,0.4c0.3,0.2,0.4,0.5,0.4,0.9c0,0.7-0.4,1.4-1.2,2.1
			C70.8,10.7,69.7,11.2,68.4,11.7z M56.8,14.9v12.4c0,1.5,0.1,2.4,0.3,2.8c0.4,0.6,1.2,0.8,2.4,0.8c1.1,0,1.9-0.3,2.3-0.8
			s0.6-1.6,0.6-3.2V14.9c0-1.3-0.2-2.2-0.6-2.7s-1.1-0.7-2.2-0.7s-1.9,0.2-2.2,0.7S56.8,13.6,56.8,14.9z"/>
		<path class="st0" d="M94.5,2.4l0,1.5l-0.1,10.3l0,4.4l-0.1,8.1l0.1,14.5v1.1h-15V41l0.1-4.7l0-8.4l0.1-11l0-5.9l-0.1-6.5l0-2
			C79.6,2.4,94.5,2.4,94.5,2.4z"/>
		<path class="st0" d="M112.9,27.3v9.1c0,1.8,0.1,2.9,0.3,3.3c0.4,0.9,1.4,1.3,2.9,1.3c2.3,0,4.5-0.6,6.7-1.9c2.2-1.2,4.1-3,5.8-5.1
			c0.5-0.7,0.9-1.2,1.1-1.4c0.2-0.2,0.5-0.3,0.8-0.3c0.3,0,0.6,0.1,0.8,0.4c0.2,0.2,0.3,0.5,0.3,0.9c0,0.8-0.6,1.9-2,3.3
			c-1.7,1.8-3.8,3.2-6.4,4.3s-5,1.7-7.5,1.7c-4.2,0-7.8-1.4-11-4.2c-1.9-1.6-3.3-3.7-4.3-6.1c-0.9-2.1-1.3-4.2-1.3-6.3
			c0-2,0.4-4.1,1.2-6.1s1.9-3.8,3.2-5.3c1.6-1.7,3.5-3.1,5.6-4c2.1-0.9,4.4-1.4,6.7-1.4c3.6,0,6.9,1.1,9.8,3.2
			c4.6,3.3,6.8,8.1,6.8,14.4h-6.8l-8.8,0L112.9,27.3z M120.4,25.4v-8.5c0-1.8-0.1-2.9-0.1-3.3s-0.2-0.7-0.4-1
			c-0.6-0.8-1.7-1.1-3.3-1.1c-1.7,0-2.8,0.4-3.2,1.3c-0.3,0.5-0.4,1.9-0.4,4.1v8.5l3.6,0.1L120.4,25.4z"/>
		<path class="st0" d="M175.3,15.1c2.5-2,4.9-3.4,7.1-4.2c2.2-0.9,4.5-1.3,7-1.3c4.5,0,7.6,1.4,9.4,4.3c0.5,0.9,0.9,1.8,1.1,3
			c0.2,1.1,0.3,2.8,0.3,5l-0.1,7.7v1.8l0.2,9.8l0,1.2H185l0.1-9.3l0.1-9.3l0-3.8c0-1.4,0-2.2,0-2.4c0-1.5-0.1-2.6-0.5-3.2
			s-1-0.9-1.9-0.9c-1,0-2.1,0.3-3.2,0.8s-2.4,1.4-3.8,2.6c0.1,0.8,0.1,1.9,0.1,3.3l-0.1,7.3l-0.1,8.2c0,2.4,0.1,4.6,0.1,6.6h-15
			l0.1-6.4l0.1-13.8c0-4.5-0.1-7-0.2-7.5c-0.2-0.8-0.9-1.3-2.1-1.3c-0.9,0-1.9,0.3-3,0.8s-2.4,1.4-3.7,2.5l-0.1,12.4l0.1,13.2h-15
			v-1.2l0.1-5.3l0-7.3l0-7l-0.1-11.2h15v4.1c2.2-1.6,4.4-2.9,6.6-3.7c2.2-0.8,4.4-1.2,6.5-1.2c3.3,0,5.9,0.8,7.9,2.5
			C173.9,12.7,174.6,13.7,175.3,15.1z"/>
	</g>
	<circle class="st0" cx="211.1" cy="38.9" r="4.1"/>
</g>
</svg>
