<?xml version="1.0" encoding="utf-8"?>
<!-- Generator: Adobe Illustrator 26.0.2, SVG Export Plug-In . SVG Version: 6.00 Build 0)  -->
<svg version="1.1" id="Lager_1" xmlns="http://www.w3.org/2000/svg" xmlns:xlink="http://www.w3.org/1999/xlink" x="0px" y="0px"
	 viewBox="0 0 215.28 41.52" style="enable-background:new 0 0 215.28 41.52;" xml:space="preserve">
<style type="text/css">
	.st0{fill:transparent;}
	.st1{fill:#a08b62;}
</style>
<g>
	<g>
		<g>
			<path class="st0" d="M65.28,41.52c-21.76,0-43.52,0-65.28,0C0,37.76,0,34,0,30.24c0.07,0.55,0.19,1.1,0.21,1.65
				c0.22,4.97,3.61,8.29,8.59,8.71c5.15,0.44,9.67-1.11,13.88-3.88c0.37-0.25,0.76-0.47,1.33-0.83c0,1.54,0,2.81,0,4.12
				c4.98,0,9.88,0,14.81,0c0-10.65,0-21.22,0-31.85c-4.95,0-9.84,0-14.84,0c0,0.51,0,0.94,0,1.37c0.01,7.68,0.02,15.35,0.01,23.03
				c0,0.43-0.09,1.09-0.38,1.27c-1.64,1.03-3.26,2.21-5.06,2.84c-2.59,0.92-3.61,0-3.66-2.77c-0.01-0.32-0.01-0.64-0.01-0.96
				c0.01-7.84,0.02-15.68,0.03-23.51c0-0.42,0-0.84,0-1.27c-5.08,0-10,0-14.91,0C0,5.44,0,2.72,0,0c26.56,0,53.12,0,79.68,0
				c0,13.33,0,26.66,0,39.99c5.02,0,9.91,0,14.88,0c0-13.39,0-26.69,0-39.99c40.24,0,80.48,0,120.72,0c0,11.94,0,23.85,0,35.76
				c-0.15-0.32-0.29-0.63-0.44-0.95c-0.9-1.87-2.9-2.75-4.9-2.17c-1.91,0.55-3.05,2.4-2.83,4.57c0.19,1.84,1.88,3.38,3.84,3.45
				c2.29,0.09,3.55-1.26,4.33-3.22c0,1.36,0,2.72,0,4.08c-49.2,0-98.4,0-147.6,0c0.09-0.07,0.18-0.17,0.28-0.19
				c2.83-0.74,4.37-2.53,4.29-4.97c-0.07-2.16-1.77-4.01-4.58-4.19c-4.22-0.27-8.46-0.09-12.69-0.17c-1.67-0.03-3.34-0.16-5-0.39
				c-0.89-0.12-1.21-0.87-0.97-1.74c0.24-0.89,1.17-1.5,1.85-1.18c2.35,1.09,4.85,1.55,7.41,1.69c4.47,0.24,8.67-0.56,12.33-3.3
				c5.72-4.28,5.7-12.22-0.04-16.46c-0.63-0.47-1.3-0.88-1.99-1.34c0.77-0.38,1.5-0.63,2.1-1.07c0.69-0.51,1.37-1.11,1.85-1.81
				c0.42-0.6,0.44-1.39-0.34-1.89C71.38,4,70.85,4.45,70.4,5.1c-0.11,0.16-0.21,0.34-0.3,0.52c-0.76,1.44-2.02,2.01-3.56,1.97
				c-1.36-0.04-2.71-0.2-4.07-0.27c-4.89-0.26-9.51,0.53-13.67,3.37c-6.37,4.36-5.97,12.98-0.6,16.55c0.05,0.04,0.06,0.14,0.09,0.21
				c-0.08-0.08-0.16-0.15-0.23-0.23c-0.67,0.79-1.33,1.6-2.01,2.38c-3.02,3.47-1.97,8.15,2.24,9.97c2.56,1.11,5.24,0.9,7.91,0.64
				c2.46-0.23,4.91-0.63,7.37-0.82C65.52,39.25,65.77,39.66,65.28,41.52z M152.19,40.03c0-0.41,0-0.72,0-1.04
				c0-7.8-0.02-15.6,0-23.4c0-0.47,0.09-1.19,0.39-1.38c1.71-1.06,3.41-2.24,5.28-2.92c2.32-0.85,3.4,0.09,3.4,2.55
				c0,7.88-0.03,15.76-0.04,23.64c0,0.83,0,1.65,0,2.5c5.02,0,9.95,0,14.91,0c-0.06-1.25-0.16-2.41-0.16-3.57
				c-0.02-7.08-0.01-14.15,0-21.23c0-0.28,0.09-0.67,0.29-0.83c1.69-1.42,3.45-2.71,5.71-3.11c2.27-0.41,3.3,0.31,3.3,2.65
				c0.02,8.12-0.05,16.23-0.08,24.35c0,0.58,0,1.17,0,1.75c5.04,0,9.98,0,14.75,0c0-3,0-5.91,0-8.83c0-5,0.02-10-0.02-14.99
				c-0.02-2.08-0.56-4.04-1.97-5.65c-2.6-2.97-6.09-3.41-9.74-3.23c-3.98,0.19-7.5,1.73-10.74,3.97c-0.71,0.49-1.41,0.98-2.19,1.51
				c-0.83-2-2.14-3.39-3.99-4.27c-2.22-1.05-4.57-1.39-7-1.23c-4.05,0.27-7.65,1.8-10.96,4.09c-0.33,0.23-0.68,0.44-1.22,0.78
				c0-1.5,0-2.73,0-3.97c-4.99,0-9.88,0-14.78,0c0,10.66,0,21.24,0,31.86C142.28,40.03,147.15,40.03,152.19,40.03z M132.5,24.93
				c0.62-11.34-9.11-19.2-19.31-17.43c-7.66,1.33-13.27,7.66-13.79,15.64c-0.41,6.33,3.14,13.73,10.96,16.6
				c7.79,2.86,16.62-1.21,20.51-6.37c0.31-0.41,0.65-0.89,0.69-1.37c0.04-0.55-0.23-1.13-0.37-1.7c-0.56,0.17-1.27,0.18-1.65,0.54
				c-0.75,0.7-1.29,1.63-1.99,2.39c-2.99,3.29-6.6,5.4-11.13,5.6c-2.42,0.1-3.37-0.87-3.39-3.26c-0.02-2.04,0-4.08,0-6.12
				c0-1.47,0-2.93,0-4.53C119.59,24.93,126.01,24.93,132.5,24.93z"/>
			<path class="st1" d="M0,8.16c4.91,0,9.82,0,14.91,0c0,0.42,0,0.84,0,1.27c-0.01,7.84-0.02,15.68-0.03,23.51c0,0.32,0,0.64,0.01,0.96
				c0.05,2.77,1.07,3.68,3.66,2.77c1.8-0.64,3.42-1.81,5.06-2.84c0.28-0.18,0.38-0.83,0.38-1.27c0.01-7.68,0-15.35-0.01-23.03
				c0-0.43,0-0.86,0-1.37c5,0,9.89,0,14.84,0c0,10.63,0,21.21,0,31.85c-4.93,0-9.83,0-14.81,0c0-1.31,0-2.58,0-4.12
				c-0.56,0.35-0.95,0.58-1.33,0.83c-4.21,2.77-8.73,4.32-13.88,3.88c-4.98-0.42-8.37-3.74-8.59-8.71c-0.02-0.55-0.14-1.1-0.21-1.65
				c0-1.04,0-2.08,0-3.12c0.06-1.19,0.18-2.37,0.17-3.56C0.14,20.03,0.06,16.49,0,12.96C0,11.36,0,9.76,0,8.16z"/>
			<path class="st1" d="M65.28,41.52c0.49-1.86,0.24-2.27-1.7-2.12c-2.46,0.18-4.91,0.58-7.37,0.82c-2.67,0.25-5.34,0.46-7.91-0.64
				c-4.22-1.82-5.27-6.5-2.24-9.97c0.68-0.78,1.34-1.59,2.01-2.38c0.08,0.08,0.16,0.15,0.23,0.23c-0.03-0.07-0.04-0.18-0.09-0.21
				c-5.37-3.57-5.77-12.19,0.6-16.55c4.15-2.84,8.77-3.63,13.67-3.37c1.36,0.07,2.71,0.24,4.07,0.27c1.55,0.04,2.81-0.53,3.56-1.97
				c0.09-0.18,0.19-0.35,0.3-0.52c0.45-0.65,0.98-1.1,1.79-0.58c0.78,0.49,0.76,1.28,0.34,1.89c-0.48,0.7-1.16,1.3-1.85,1.81
				c-0.6,0.44-1.33,0.69-2.1,1.07c0.69,0.46,1.36,0.88,1.99,1.34c5.73,4.24,5.76,12.18,0.04,16.46c-3.66,2.74-7.87,3.54-12.33,3.3
				c-2.56-0.14-5.06-0.59-7.41-1.69c-0.69-0.32-1.61,0.29-1.85,1.18c-0.24,0.87,0.08,1.62,0.97,1.74c1.65,0.23,3.33,0.36,5,0.39
				c4.23,0.08,8.47-0.1,12.69,0.17c2.81,0.18,4.51,2.03,4.58,4.19c0.08,2.44-1.46,4.23-4.29,4.97c-0.1,0.03-0.19,0.13-0.28,0.19
				C66.88,41.52,66.08,41.52,65.28,41.52z M56.9,18.89c0,2.28-0.03,4.56,0.01,6.83c0.03,2.21,0.71,2.85,2.89,2.83
				c1.77-0.01,2.35-0.48,2.66-2.23c0.1-0.59,0.16-1.19,0.16-1.78c0.01-3.96,0.02-7.91,0-11.87c0-0.67-0.05-1.37-0.26-2
				c-0.15-0.45-0.51-0.95-0.91-1.16c-2.34-1.22-4.5,0.06-4.54,2.67C56.87,14.41,56.89,16.65,56.9,18.89z"/>
			<path class="st1" d="M94.56,0c0,13.3,0,26.6,0,39.99c-4.97,0-9.86,0-14.88,0c0-13.33,0-26.66,0-39.99C84.64,0,89.6,0,94.56,0z"/>
			<path class="st1" d="M215.28,37.44c-0.79,1.96-2.04,3.31-4.33,3.22c-1.96-0.07-3.65-1.61-3.84-3.45c-0.22-2.17,0.92-4.01,2.83-4.57
				c2.01-0.58,4,0.3,4.9,2.17c0.15,0.31,0.3,0.63,0.44,0.95C215.28,36.32,215.28,36.88,215.28,37.44z"/>
			<path class="st0" d="M0,12.96c0.06,3.53,0.14,7.07,0.17,10.6c0.01,1.19-0.11,2.37-0.17,3.56C0,22.4,0,17.68,0,12.96z"/>
			<path class="st1" d="M152.19,40.03c-5.04,0-9.91,0-14.84,0c0-10.62,0-21.2,0-31.86c4.91,0,9.8,0,14.78,0c0,1.24,0,2.47,0,3.97
				c0.53-0.34,0.89-0.54,1.22-0.78c3.31-2.29,6.9-3.82,10.96-4.09c2.42-0.16,4.78,0.17,7,1.23c1.84,0.88,3.16,2.27,3.99,4.27
				c0.77-0.53,1.48-1.02,2.19-1.51c3.24-2.24,6.75-3.78,10.74-3.97c3.65-0.18,7.13,0.26,9.74,3.23c1.41,1.61,1.95,3.57,1.97,5.65
				c0.05,5,0.02,10,0.02,14.99c0,2.91,0,5.83,0,8.83c-4.77,0-9.7,0-14.75,0c0-0.58,0-1.17,0-1.75c0.03-8.12,0.1-16.23,0.08-24.35
				c0-2.33-1.03-3.05-3.3-2.65c-2.25,0.4-4.02,1.69-5.71,3.11c-0.2,0.16-0.29,0.55-0.29,0.83c-0.01,7.08-0.02,14.15,0,21.23
				c0,1.16,0.1,2.31,0.16,3.57c-4.96,0-9.88,0-14.91,0c0-0.85,0-1.67,0-2.5c0.02-7.88,0.04-15.76,0.04-23.64
				c0-2.46-1.08-3.4-3.4-2.55c-1.87,0.68-3.57,1.86-5.28,2.92c-0.3,0.19-0.39,0.91-0.39,1.38c-0.02,7.8-0.01,15.6,0,23.4
				C152.19,39.31,152.19,39.62,152.19,40.03z"/>
			<path class="st1" d="M132.5,24.93c-6.49,0-12.91,0-19.46,0c0,1.6,0,3.06,0,4.53c0,2.04-0.01,4.08,0,6.12c0.02,2.4,0.97,3.37,3.39,3.26
				c4.53-0.2,8.14-2.31,11.13-5.6c0.7-0.77,1.23-1.69,1.99-2.39c0.39-0.36,1.09-0.37,1.65-0.54c0.14,0.57,0.41,1.15,0.37,1.7
				c-0.04,0.47-0.38,0.96-0.69,1.37c-3.89,5.16-12.72,9.23-20.51,6.37c-7.82-2.88-11.37-10.28-10.96-16.6
				c0.52-7.98,6.13-14.31,13.79-15.64C123.39,5.72,133.12,13.58,132.5,24.93z M113.06,23.08c2.52,0,4.93,0,7.32,0
				c0.07-0.26,0.12-0.37,0.12-0.48c-0.01-3.67,0-7.35-0.04-11.02c-0.01-1.32-0.91-2.25-2.33-2.43c-0.75-0.1-1.52-0.11-2.27-0.05
				c-1.95,0.15-2.75,0.91-2.78,2.87C113.01,15.6,113.06,19.23,113.06,23.08z"/>
			<path class="st0" d="M56.9,18.89c0-2.24-0.03-4.48,0.01-6.71c0.04-2.61,2.19-3.89,4.54-2.67c0.41,0.21,0.77,0.72,0.91,1.16
				c0.21,0.63,0.25,1.33,0.26,2c0.02,3.96,0.02,7.91,0,11.87c0,0.59-0.06,1.2-0.16,1.78c-0.31,1.75-0.88,2.22-2.66,2.23
				c-2.18,0.02-2.86-0.62-2.89-2.83C56.87,23.45,56.9,21.17,56.9,18.89z"/>
			<path class="st0" d="M113.06,23.08c0-3.85-0.05-7.49,0.02-11.12c0.03-1.96,0.83-2.71,2.78-2.87c0.75-0.06,1.52-0.05,2.27,0.05
				c1.42,0.18,2.32,1.11,2.33,2.43c0.04,3.67,0.03,7.35,0.04,11.02c0,0.11-0.05,0.22-0.12,0.48
				C117.99,23.08,115.58,23.08,113.06,23.08z"/>
		</g>
	</g>
</g>
</svg>
