<?xml version="1.0" encoding="utf-8"?>
<!-- Generator: Adobe Illustrator 26.1.0, SVG Export Plug-In . SVG Version: 6.00 Build 0)  -->
<svg version="1.1" id="Layer_3_xA0_Image_00000127004011628028829040000005069749885296750267_"
	 xmlns="http://www.w3.org/2000/svg" xmlns:xlink="http://www.w3.org/1999/xlink" x="0px" y="0px" viewBox="0 0 450 527"
	 style="enable-background:new 0 0 450 527;" xml:space="preserve">
<g>
	<g>
		<path d="M199.53,386.08c0.01-3.39-3.04-5.84-3.12-9.49c3.29,2.71,10.25,18.52,14.13,29.17c3.75,10.29,6.39,20.89,9.61,31.31
			c3.15,10.19,5.43,20.7,7.1,31.33c1.68,10.74,1.25,21.73,4.41,32.34c0.22-2.17,0.44-4.34,0.73-7.25c3.25,3.62,1.2,7.9,3.7,11.86
			c0-5.3,0-9.8,0-14.29c0.32-0.01,0.63-0.03,0.95-0.04c0.2,3.48,0.41,6.96,0.61,10.43c-0.14-4.68,3.28-8.26,3.6-12.98
			c0.46-6.74-1.82-13.07-1.81-19.74c0.01-3.38,1.86-1.17,2.54-1.89c-1.18,2.72-1.25,5.61-0.58,8.35c1.92,7.75,3.07,15.51,1.62,23.52
			c3.97-6.02,1.15-12.77,2.1-19.09c2.38,8.21,1.95,16.81,3,26.03c3.14-5.61,1.42-23.08-2.13-27.01c-0.34-0.38-0.87-0.06-0.99,0.53
			c0.67-1.28,0.65-3.47,0.03-3.75c-4.05-1.8-2.01-4.34-1.23-6.84c0.3-0.97,0.15-1.01-1.78-1.87c1.14-4.46-0.59-8.52-1.79-12.65
			c-1.35-4.68-2.78-9.33-3.37-14.27c7.45,20.47,18.1,39.75,21.81,61.46c1.91,0.41,0.94-1.61,2-1.85c1.44,0.64-0.26,2.54,1.37,3.3
			c0.16-0.41,0.47-0.81,0.43-1.18c-0.11-0.97-0.71-2.22,0.26-2.78c1.71-0.99,0.86,1.22,1.59,1.54c1.16,0.5,1.44-0.39,1.58-1.19
			c0.35-1.88-0.15-3.61-1.02-5.28c-1.33-2.57-1.65-5.34-1.36-8.65c8.99,1.65,8.07,11.23,12.9,16.39c0.55-2.2-1.41-3.26-1.24-5.22
			c3.57,0.63,5.69,3.21,7.65,5.65c2.11-0.87-0.58-2.24,1-2.97c0.09,0.03,0.51,0.03,0.6,0.2c1.2,2.36,2.34,4.75,3.52,7.13
			c1.7,3.43,3.66,3.36,5.37,0.13c0.88-1.66,1.06-3.87,3.5-1.47c0.17,0.17,1.06-0.03,1.24-0.3c0.76-1.13,0.26-2.21-0.37-3.24
			c-2.43-3.94-4.48-8.19-7.37-11.74c-3.53-4.34-4.69-9.81-8.39-14.46c2.87,0.16,2.74,3.17,5.38,3.58
			c-0.76-4.44-5.15-6.52-6.12-10.41l-0.1,0.1c3-0.1,2.92,3.76,5.86,4.48c-0.55-7.33-7.88-11.78-7.58-20
			c9.09,5.25,11.48,14.85,17.67,21.97c1.29,0.03-0.07-1.95,1.36-2.7c6.56,8.02,10.95,18.07,20.88,24.81
			c-2.9-5.38-5.7-10.39-9.1-13.3c-2.73-2.35-3.52-4.92-5.24-7.39c-1.76-2.53,3.67-2.86,0.9-5.42c3.52,2.72,4.6,7.48,9.8,8.92
			c-8.63-11.66-16.77-22.76-21.22-36.15c1.73,4.58,6.25,5.96,9.7,8.69c-9.44-17.22-15.43-36.02-25.33-52.99
			c15.24,21.56,25.35,45.89,37.45,69.17c0.68-2.67-0.51-4.87-1.64-6.81c-5.49-9.45-8.44-20.04-13.54-29.66
			c-2.24-4.22-5.3-8.22-6.53-12.72c-2.49-9.08-7.54-16.72-11.79-24.87c-2.78-5.31-2.26-12.12-6.64-17.5
			c-0.7,3.69,1.73,5.97,2.86,8.64c0.26,0.61,0.63,1.27-0.21,1.63c-0.67,0.29-1.24-0.06-1.65-0.69
			c-6.93-10.87-8.76-24.48-18.63-33.93c6.66,2.51,13.08,4.53,19.64,6.05c2.67,0.62,5.57,1.7,7.4-1.82c0.97-1.86,1.64-0.29,2.57,0.35
			c2.84,1.96,4.93,1.68,5.45-2.26c0.57-4.32,0.85-8.53-0.68-12.81c-2.71-7.57-1.77-15.52-1.44-23.29
			c0.59-13.78,2.46-27.49,2.53-41.31c0.01-1.54,0.35-3.01,1.33-4.21c4.99-6.13,10.58-11.78,14.48-20.15
			c2.34,13.08-4.41,24.36-1.37,37.03c2.85-13.38,5.2-25.76,3.32-38.52c-0.09-0.6,0.22-1.3,0.49-1.9c2.91-6.44,6.01-12.81,6.51-20.12
			c0.45,0.08,0.91,0.17,1.36,0.25c-0.4,7.32-0.79,14.65-1.19,21.97c-0.12,0.01-0.25,0.01-0.37,0.02c-0.17-2.86-0.35-5.72-0.6-9.95
			c-4.19,22.08-0.94,43.49-6.4,64.05c0.83-16.05,3.81-31.99,2.29-48.15c-1.19,10.2,0.52,20.91-3.16,30.59
			c-5.79,15.22-3.48,31.17-5.85,47.35c-3.74-3.57-7.21-6.89-11.25-10.74c-0.37,3.47,1.66,4.69,3.07,6.04
			c4.89,4.7,9.38,9.13,10.37,16.75c0.53,4.05,2.66,8.34,3.89,12.61c0.75,2.6-0.09,4.93,0.24,7.33c1.23,8.9,2.91,18.23,7.15,25.68
			c8,14.04,8.66,30.22,15.45,44.42c0.48,1.01,0.61,2.19,1.09,3.99c0.98-9.97-4.27-18.04-5.3-27.7c3.99,4.83,4.21,10.94,8.17,14.96
			c-2.26-7.38-6.21-14.16-6.92-22.02c4.11,7.12,5.95,15.33,11.16,21.94c-2.29-6.13-4.42-12.31-6.93-18.35
			c-1.11-2.67-0.28-2.74,1.33-2.19c-7.06-19.18-6.8-39.35-5.84-59.75c0.98,3.78,2.04,7.54,2.94,11.34
			c4.96,21.08,10.67,41.97,19.14,61.91c5.85,13.77,12.86,27.05,20.92,39.72c3.3,5.2,6.29,10.59,9.62,15.77
			c4.86,7.56,5.76,16.23,7,24.74c0.79,5.42,1.78,10.76,3.1,16.06c-114.67,0-229.33,0-344,0c1.08-4.99,2.24-9.96,3.2-14.97
			c0.3-1.6,0.28-3.32-0.64-4.86c-6.19-10.38-4.06-20.89,0.16-31.08c3.99-9.62,8.51-19,11.26-29.11c1.68-6.18,4.86-11.56,8.97-16.51
			c3.5-4.21,7.35-8.36,9.4-13.47c2.87-7.17,10.43-8.97,15.04-14.12c6.55-7.3,13.6-14.15,19.2-22.35
			c-9.21,8.07-16.55,18.24-27.48,25.45c0.28-5.84,4.05-9.48,6.53-13.04c3.93-5.63,7.56-11.62,12.44-16.68
			c8.55-8.86,17.37-17.12,29.11-21.8c3.18-1.27,4.2-5.77,7.92-7.17c2.26-0.85,3.42-3.88,6.91-2.75c0.72,0.23,3.33-3.44,3.79-6.11
			c0.33-1.93,0.77-3.84,1.68-5.74c5.92,13.26,2.21,27.42,4.38,42.08c0.56-11.53,2.87-22.37,0.35-32.39
			c-2.18-8.67-0.17-16.77-0.77-25.09c0.77,6.39-0.41,12.99,2.04,19.2c1.1-10.92,0.63-21.82,0.3-32.82
			c4.72,6.57,5.34,14.33,6.59,21.99c1.8-0.09,0.84-2.23,2.09-2.86c0.08,0.47,0.3,0.94,0.21,1.34c-0.99,4.5-0.1,10.25,2.43,12.19
			c2.91,2.23,2.56,6,6.24,7.88c3.67,1.88,1.96,7.83,3.4,12.05c-2.7-0.14-2.8-2.52-4.81-4.03c-0.13,4.56,3.93,6.65,4.81,10.76
			c-3.27-1.82-4.09-5.43-7.27-7.55c-0.02,3.21,1.36,5.19,2.94,6.69c8.17,7.76,11.78,18.16,16.53,27.91
			c0.86,1.75,1.18,3.86,3.43,4.55c-0.76,1.63-0.42,3.21-0.07,4.88c1.04,5.05,2.03,10.11,2.86,15.19
			c2.43,14.78,2.74,29.67,2.62,44.62c-0.04,4.93-0.44,9.99,1.01,14.89c0.78-4.41-0.24-8.91,0.77-13.56
			c1.15,4.53-0.26,9.11,1.52,13.66c0.96-1.59,0.66-2.89,0.71-4.17c0.61-16.04-1.84-31.83-3.81-47.66
			C204.05,404.45,203.13,394.99,199.53,386.08z M172.98,420.9c4.35,3.8,2.52,10.17,5.97,14.37c-0.72-5.88-1.79-11.63-4.57-17.11
			c-0.57,1.14-1.02,2.03-1.47,2.92c1.13-5.44-1.14-10.38-2.5-15.39c-2.9-10.73-6.14-21.37-9.23-32.04
			c-1.39,3.84,0.81,6.83,1.68,10.11C166.15,396.18,169.58,408.55,172.98,420.9z M186.14,448.43c6.59-3.3,5.44-10.29,7.36-15.85
			c1.38,7.7-0.77,14.83-2.81,22c-1,3.51-2.8,7.12-0.04,10.73c1.83-0.21,4.26-4.11,5.13,1.06c0.92-2.52,1.73-4.71,2.61-7.13
			c1.57,2.26,0.12,4.16,0.06,7.09c2.26-4.32,3.1-7.63,2-11.47c-0.76-2.68-1.38-5.71-0.93-8.38c1.56-9.23,0.16-18.52,0.95-27.73
			c0.79-9.16-3.28-17.5-3.97-26.48c-0.46-6.03-4.29-11.81-6.61-17.7c1.02,13.25,3.23,26.29,3.17,39.52
			c-2.19-2.77-1.67-6.06-2.35-9.09c-3.26-14.56-8.91-28.3-14.05-42.22c-0.62-1.68-1.76-3.17-2.66-4.76
			c-4.33,2.59-3.46-2.27-4.86-3.63c-1.62-1.57-2.51-3.89-3.89-6.15c6.59,23.66,14.76,46.4,17.73,70.49
			c0.6-16.42-4.97-31.8-8.69-48.49c1.08,1.54,1.62,2.18,2.01,2.9c6.38,11.76,9.79,24.43,12.34,37.53
			c2.54,13.01,1.69,25.49-2.43,37.91c-2.59-3.45,0.71-7.92-2.09-11.36c0.77,6.12-0.78,12.39,1.25,18.43
			C184.82,453.14,185.98,450.82,186.14,448.43z M216.22,459.6c1.97-7.59,2.74-14.86,0.43-22.06c-1.84,7.52-0.83,15.26-2.09,22.76
			c-1.28,7.57-3.15,15.04-4.77,22.56c3.94-5.3,9.15-9.77,7.65-17.14c0.45,0.11,0.91,0.23,1.36,0.34
			c-0.73,7.06-1.45,14.11-2.18,21.17c0.41,0.03,0.82,0.06,1.24,0.08c0.19-10.7,8.51-20.62,3.03-32.13
			C218.41,456.03,219.07,458.8,216.22,459.6z M163.05,410.6c0.36-0.3,0.71-0.6,1.07-0.9c-3.98-4.56-7.98-9.11-13.21-12.7
			C155.06,401.65,159.06,406.12,163.05,410.6z"/>
		<path d="M154.68,162.1c-2.28,5.95-2.77,12.2-1.61,18.31c1.74,9.16,3.31,18.24,1.93,27.58c-0.27,1.85-1.25,3.89,1.55,5.02
			c1.16,0.47,0.68,2.12,0.64,3.24c-0.36,11.14-0.52,22.29-1.32,33.4c-0.24,3.33,2.8,6.7-0.36,10.1c-3-8.28-1.02-17.14-3.7-25.38
			c0.02,5.27-0.59,10.41-1.1,15.63c-0.93-7.77-1.86-15.55-2.84-23.7c-2.42,1.48-0.94,3.75-2.54,5.83
			c-1.73-7.07,0.07-14.26-3.82-20.49c-2.6,1.58-0.09,4.91-2.69,7.69c1.37-13.1,1.21-25.28,1.08-38.81
			c-3.65,5.14-2.18,10.43-4.33,14.99c-0.69-3.5,1.63-6.82-0.37-10c-1.88,0.86-0.76,2.51-1.54,3.77c-0.09-0.55-0.24-0.94-0.19-1.31
			c2.14-16.94,3.4-33.99,6.98-50.74c1.31-6.15,1.59-12.51,2.64-18.72c2.78-16.54,12.37-30.01,20.33-44.17
			c5.83-10.37,12.95-19.78,23.17-26.39c1.41-0.91,2.73-1.65,4.47-1.95c6.35-1.09,11.65-4.27,17.05-7.8
			c6.17-4.04,13.17-6.96,20.06-9.75c18.79-7.6,37.01-6.65,55.17,3.01c5.45,2.9,10.64,7.01,17.52,7.51
			c5.04,0.37,13.33,12.88,13.28,18.67c-0.03,2.99-0.35,5.98-0.64,8.97c-0.18,1.85-0.44,3.76,0.43,5.41
			c8.85,16.81,8.32,35.02,8.05,53.18c-0.2,12.95-1.97,25.91,0.25,38.85c0.18,1.06,0.41,2.31-0.93,3.56
			c-2.88-5.36-2.3-11.31-3.45-16.81c-1.83-8.71-1.57-17.85-7.92-25.31c-1.84-2.15-2.02-5.96-2.39-9.07
			c-1.39-11.69-5.44-22.35-13.35-31.03c-5.42-5.95-11.75-11.15-20.65-11.28c-3.01-0.04-5.25-2.7-8.48-2.64
			c-10.98,0.2-21.09,2.93-30.93,8.05c-4.77,2.48-8.58,6.6-14.56,7.49c-6.41,0.96-13.78,15.14-13.77,22.76
			c0.01,8.63-0.62,17.24-6.28,24.56c-2.63,3.4-1.98,4.95,2.24,5.44c4.95,0.57,10.01,1.29,14.92,0.83
			c7.14-0.68,11.41,2.53,14.18,8.47c1.47,3.14,3.81,4.56,7.02,5.69c6.55,2.29,7.65,8.37,8.08,14.19c0.63,8.42,1.53,16.89-0.31,25.31
			c-0.88,4.04,1.26,7.12,3.52,10.02c1.92,2.47,1.78,4.19-1.19,5.37c-5.87,2.32-5.93,7.87-6.99,12.76c-0.45,2.07,1.63,1.52,2.79,1.8
			c2.9,0.71,7.7-2.08,7.59,4.3c-0.02,0.96,2.02,0.68,3.16,0.75c1.92,0.11,3.93-0.34,6.2,1.01c-2.48,2.08-5.03,1.4-7.25,1.34
			c-3.83-0.12-6.18,0.86-6.04,5.2c0.13,3.97,1.37,7.01,5.97,6.8c5.95-0.27,11.84-1.16,17.66-2.54c-5.71,4.36-12.64,4.05-19.41,4.52
			c2.24,4.78,1.69,5.72-3.71,5.61c-5.63-0.11-10.79-1.34-14.58-6.23c-1.8-2.32-4.37-4.06-6.67-5.98c-2.12-1.76-2.75-3.34-0.79-5.87
			c3.4-4.38,4.87-9.68,6.27-14.99c0.48-1.84-0.54-2.76-1.61-3.85c-4.9-4.99-7.07-10.73-4.87-17.71c1.4-4.46-1.46-8.28-3.11-11.7
			c-1.6-3.32-1.56-5.35,0.28-7.99c0.86-1.24,1.92-3.55,0.39-3.77c-2.07-0.31-3.24-4.55-6.04-1.41c-1.34,1.5-3.37,1.87-5.32,1.95
			c-6.71,0.25-11.37,4.37-16.15,8.32c-0.86,0.71-1.27,1.65-0.91,2.66c3.06,8.65,1.94,17.78,2.81,26.65
			c0.77,7.87,4.26,14.36,7.65,20.85c2.59,4.97,4.88,10.13,7.73,14.97c4.54,7.7,8.32,15.93,16.69,20.64
			c3.03,1.71,3.87,5.42,4.89,8.52c2.21,6.67,5.1,12.6,12.3,15.33c-8.93-1.43-15.88-7.42-24.67-10c-0.13,5.19,5.09,7.8,5.61,12.29
			c-1.93,1.03-2.99-2.77-4.45-0.63c-1.42,2.09-3.69,4.08-2.84,7.15c1.16,4.18,2.34,8.3,5.12,11.83c4.1,5.2,8,10.55,11.99,15.85
			c-1.25,1-1.66-1.11-3.22-0.12c4.27,5.82,6.63,12.95,11.9,18.03c5.19,5,9.69,10.34,12.33,17.29c-1.77-1.69-3.54-3.37-6.05-5.76
			c0.61,4.19,3.96,6.17,3.85,9.67c-1.2,1.34-2.32-1.69-3.99-0.34c3.75,4.79,5.95,9.71,5.27,16.2c-0.38,3.66,2.43,7.65,3.13,11.73
			c-6.35-6.38-4.19-15.99-8.81-23c-1.26,0.75-0.55,2.17-0.46,3.37c0.38,4.92,1.3,9.69,0.94,14.8c-0.26,3.73,2.59,7.71,4.16,11.53
			c1.52,3.69,3.2,7.32,4.78,10.99c0.64,1.49,1.5,3-0.14,5.46c-2.29-9.78-7.2-17.84-10.39-26.63c0.95-4.93-1.54-9.07-3-13.45
			c-1.34,5.02,2.15,8.94,3.01,13.46c-2.74-1.14-2.4-5.05-5.84-6.35c1.07,7.04,4.78,12.93,5.82,20.77
			c-4.05-5.04-3.55-11.53-9.55-15.03c1.94,6.83,4.15,12.68,6.64,18.47c-5.52-5.99-6.62-14.52-11.98-20.65
			c-1.59,0.91,1.03,3.11-0.99,3.64c-2.05,0.53-2.95-1.35-3.84-2.61c-7.59-10.7-15.32-21.31-21.96-32.66
			c-1.16-1.98-2.22-4.04-4.02-5.56l0.16,0.17c-0.22-1.92-2.56-4.55,2.02-4.7c1.38-0.05,1.28-1.95,0.8-3.38
			c-0.57-1.69-1.88-3.17-1.51-5.92c1.88,3,3.44,5.5,5.1,8.15c2.76-4.25-0.45-6.81-2.03-9.75c-1.49-2.77-1.47-2.72,1.48-3.27
			c1.89-0.35,1.05-1.74,0.79-2.73c-1.45-5.44-2.39-11.1-4.57-16.24c-5.44-12.82-7.2-26.55-10.84-39.81
			c-7.53-27.48-9-55.63-10.24-83.88c-0.45-10.14-1.24-20.25-0.92-30.4c0.3-9.65,2.17-19.05,4.68-28.36
			c2.77-10.26,5.39-20.57,8.08-30.85c0.08-0.32,0.28-0.68,0.21-0.97c-2.57-11.35,5.14-20.18,7.43-30.34c0.5-2.2,2.38-3.54,3.67-5.26
			c2.7-3.58,7.73-5.36,8.21-10.75c0.07-0.76,1.65-1.63,2.69-2.02c5.51-2.12,9.21-7.28,15.08-8.74c-14.03,1.7-24.07,9.61-31.87,20.73
			c-14.07,20.06-22.91,42.24-26.88,66.45c-2.65,16.2-4.24,32.47-5.16,48.86c-1.11,19.77-4.18,39.42-4.3,59.23
			c-0.06,10.65-0.36,21.3-0.46,31.94c-0.02,1.96-0.3,3.91-0.78,5.86c-2.31-16.33-5.17-32.51-6.24-49
			c-1.17-18.14-2.36-36.33-5.23-54.32c-0.53-3.33-0.53-6.63,0.08-9.95c-0.26-4.6,2.44-9.16,0.55-13.76
			c-0.47-0.01-0.95-0.01-1.42-0.02C154.1,152.89,154.39,157.5,154.68,162.1z M214.35,157.23c-0.34,1.76,0.47,2.91,2.03,3.5
			c3.78,1.46,7.59,2.84,11.39,4.25c-3.23-5.06-8.07-6.94-13.54-7.62c2.71-1.97,5.7-0.24,8.87-0.44c-1.33-1.5,0.33-4.04-2.52-4.49
			c-7.52-1.19-15.03-2.51-22.55-3.71c-1.89-0.3-3.59,0.45-5.11,1.53c-1.53,1.09-1.93,2.62-1.56,4.39c0.37,1.78,1.71,2.32,3.3,2.46
			c1.65,0.14,3.32,0.1,4.96,0.33C204.53,158.1,209.42,156.04,214.35,157.23z M198.1,234.84c1.23,10.39,3.57,20.56,11.26,28.66
			c1.41,1.48,3.05,3.04,5.16,1.99c2.23-1.11,2.49-3.36,1.84-5.64c-0.27-0.95-0.72-1.85-0.99-2.8c-2.49-8.79-9.77-14.96-12.81-23.5
			c-0.62-1.74-0.63-5.36-3.18-4.78C197.13,229.28,198.74,232.58,198.1,234.84z M246.45,239.36c-0.85-2.17-0.56-5.49-4.14-5.75
			c-2.06-0.15-2.82,1.61-2.64,3.46c0.31,3.16,2.66,4.6,5.36,5.09C246.66,242.47,246.33,240.68,246.45,239.36z M290.65,44.54
			c1.43-0.58,3.23-1.01,2.71-2.96c-0.54-2.04-2.14-3.38-4.33-3.56c-1.48-0.12-1.61,1.03-1.09,2.01
			C288.77,41.57,287.57,44.39,290.65,44.54z"/>
		<path d="M267.06,162.94c1.54-1.66,2.99-3.22,4.43-4.78c-1.23-1.63-2.15,1.19-3.43-0.34c4.39-8.41,12.04-9.91,20.79-9.77
			c3.83,0.06,7.26,1.16,10.5,2.64c4.04,1.85,6.99,5.15,9.25,9.92c-7.53-1.6-14.21,1.06-21.12,2.26
			C280.84,164.04,274.17,167.04,267.06,162.94z"/>
		<path d="M304.27,133.12c-9.12-1.55-16.25,1.8-23.18,6.46c-4.18,2.81-9.34,3.34-14.29,4.01c-0.96,0.13-2.11,0.12-2.69-0.88
			c-0.67-1.16-0.17-2.39,0.62-3.22c1.48-1.56,2.92-3.47,4.79-4.29c9.91-4.33,19.98-8.23,31.16-5.44
			C302.15,130.12,303.51,130.69,304.27,133.12z"/>
		<path d="M187.2,347.76c5.98,12.41,16.22,21.14,26.44,29.65c5.84,4.87,7.3,12.45,12.94,17.38c5.28,4.6,9.61,10.3,14.08,15.79
			c-6.65-3.01-11.46-8.27-15.79-13.75c-2.79-3.53-5.93-6.67-8.85-10.03c-3.34-3.84-7.35-7.06-9.15-12.26
			c-1.13-3.26-4.67-5.09-7.5-7.12C192.65,362.57,187.82,356.54,187.2,347.76z"/>
		<path d="M205.24,351.32c0.38,4.14,3.06,7.23,5.04,10.58c3.19,5.39,6.75,10.56,10.14,15.83c0.43,0.67,1,1.37-0.14,2.99
			c-13.9-21-30.06-40.39-31.89-66.77c1.5,5.78,4.1,11.2,6.18,16.8c2.13,5.74,4.96,11.23,7.65,16.74c0.73,1.5,0.79,3.74,3.18,3.99
			C205.4,351.49,205.24,351.32,205.24,351.32z"/>
		<path d="M191.52,91.96c-4.85,19.47-7.12,39.53-13.97,58.63c0.37-3.28,0.44-6.63,1.18-9.82c2-8.68,3.18-17.57,6.32-25.98
			c0.34-0.92,1.04-2.11,0.74-2.82C182.29,103.83,188.36,98.3,191.52,91.96z"/>
		<path d="M230.83,459.47c-4.09-19.51-7.63-38.33-13.94-56.18c8.29,8.42,11.8,19.15,11.23,30.86c-0.26,5.33,1.2,10.79,2.26,16.11
			C230.95,453.08,231.38,455.79,230.83,459.47z"/>
		<path d="M260,396.79c7.79,12.03,13.59,24.21,17.93,37.32c-6.47-3.9-10.04-9.38-11.51-16.6C265.02,410.65,260.34,404.73,260,396.79
			z"/>
		<path d="M292.37,234.38c-4.69-7.08-7.18,3.53-11.69,0.03c-1.15-2.63,3.19-2.62,4.39-4.84c-1.23-1.7-2.72,1.35-3.7-0.28
			c1.72-2.43,8.51-4.53,10.48-2.71C294.22,228.76,294.69,231.63,292.37,234.38z"/>
		<path d="M324.07,352.46c-0.12,10.67,4.64,20.66,3.92,32.59C323.94,373.7,322.48,363.25,324.07,352.46z"/>
		<path d="M156.87,278.31c2.71,7.41,2.91,15.14,3.05,22.89C158.08,293.67,155.91,286.19,156.87,278.31z"/>
		<path d="M318.02,281.75c-0.86,9.87-1.72,19.74-2.58,29.62C314.75,301.34,315.23,291.42,318.02,281.75z"/>
		<path d="M268.18,477.04c-0.85-0.04-1.59-0.19-2.05-1.07c-3.42-6.57-6.51-13.28-8.43-20.5c3.95,6.99,8.48,13.69,10.25,21.72
			C267.94,477.2,268.18,477.04,268.18,477.04z"/>
		<path d="M281.2,468.43c-6.29-5.73-7.22-13.85-9.89-21.19c4.69,6.47,6.95,14,9.79,21.28C281.1,468.53,281.2,468.43,281.2,468.43z"
			/>
		<path d="M235.91,474.18c-1.64-8.91-1.55-17.97-3.59-26.76C235.62,456.08,235.47,465.21,235.91,474.18z"/>
		<path d="M315.1,373.23c-0.92-7.63-1.83-15.25-2.75-22.88c0.26-0.03,0.52-0.06,0.79-0.1c0.95,7.62,1.9,15.25,2.85,22.87
			C315.7,373.16,315.4,373.2,315.1,373.23z"/>
		<path d="M258.65,449.61c3.49,6.17,6.98,12.34,10.48,18.51c-0.32,0.17-0.63,0.35-0.95,0.52c-3.4-6.22-6.8-12.44-10.19-18.66
			C258.2,449.85,258.42,449.73,258.65,449.61z"/>
		<path d="M161.81,273.94c0,4.33,0,8.66,0,13C160.06,282.74,160.72,278.38,161.81,273.94z"/>
		<path d="M173.19,295.94c-4.94-5.61-1.85-10.47-1.36-15.18C172.46,285.42,171.41,290.16,173.19,295.94z"/>
		<path d="M280.61,419.07c2.68,3.84,5.06,7.85,6.3,12.43C283.72,427.92,281.7,423.74,280.61,419.07z"/>
		<path d="M164.52,283.83c2.78,3.09,2.38,6.65,1.86,11.08C163.18,291.02,165.94,287.12,164.52,283.83z"/>
		<path d="M250.81,437.75c1.59,3.63,3.17,7.26,4.76,10.88c-0.27,0.12-0.54,0.24-0.81,0.35c-1.67-3.63-3.33-7.27-5-10.9
			C250.11,437.97,250.46,437.86,250.81,437.75z"/>
		<path d="M205.5,335.77c-3.46-2.08-3.87-5.49-3.64-9.17C203.08,329.66,204.29,332.72,205.5,335.77z"/>
		<path d="M268.18,477.04c0,0-0.23,0.15-0.23,0.15c1.45,3.29,2.89,6.57,4.33,9.86C270.1,484.03,265.59,481.86,268.18,477.04z"/>
		<path d="M179.48,287.99c0-5.11,0-10.21,0-15.32c0.15,0,0.3-0.01,0.45-0.01c0,5.11,0,10.23,0,15.34
			C179.78,288,179.63,287.99,179.48,287.99z"/>
	</g>
</g>
<g id="Layer_2_xA0_Image_00000097485170092573655470000007525480318663801769_">
</g>
</svg>
