<?xml version="1.0" encoding="utf-8"?>
<!-- Generator: Adobe Illustrator 26.0.1, SVG Export Plug-In . SVG Version: 6.00 Build 0)  -->
<svg version="1.1" id="Lager_1" xmlns="http://www.w3.org/2000/svg" xmlns:xlink="http://www.w3.org/1999/xlink" x="0px" y="0px"
	 viewBox="0 0 375 375" style="enable-background:new 0 0 375 375;" xml:space="preserve">
<style type="text/css">
	.st0{fill:#FFFFFF;}
</style>
<g>
	<path class="st0" d="M80.4,189.69c-1.6,0.8-3.32,1.5-5.15,2.1c-1.83,0.6-3.75,1.17-5.75,1.7c4,0.93,7.63,2.2,10.9,3.8l32.7,17.1
		c1.73,0.8,2.95,1.8,3.65,3s1.05,2.53,1.05,4v19.4l-80.1-41.9v-10.9l80.1-41.8v19.4c0,1.4-0.35,2.7-1.05,3.9
		c-0.7,1.2-1.92,2.2-3.65,3L80.4,189.69z"/>
	<path class="st0" d="M170.7,260.49c-1.27,3.33-3.28,5.85-6.05,7.55c-2.77,1.7-5.58,2.55-8.45,2.55h-11.7l57.7-149.3
		c1.13-3,2.93-5.33,5.4-7c2.47-1.67,5.3-2.5,8.5-2.5h11.8L170.7,260.49z"/>
	<path class="st0" d="M334.69,187.99v10.9l-80.1,41.9v-19.4c0-1.47,0.35-2.8,1.05-4s1.92-2.2,3.65-3l32.7-17.1
		c1.67-0.8,3.4-1.52,5.2-2.15c1.8-0.63,3.73-1.18,5.8-1.65c-2.07-0.46-4-1.02-5.8-1.65c-1.8-0.63-3.53-1.35-5.2-2.15l-32.7-17.2
		c-1.73-0.8-2.95-1.8-3.65-3c-0.7-1.2-1.05-2.5-1.05-3.9v-19.4L334.69,187.99z"/>
</g>
</svg>
