<?xml version="1.0" encoding="utf-8"?>
<!-- Generator: Adobe Illustrator 26.0.1, SVG Export Plug-In . SVG Version: 6.00 Build 0)  -->
<svg version="1.1" id="Lager_1" xmlns="http://www.w3.org/2000/svg" xmlns:xlink="http://www.w3.org/1999/xlink" x="0px" y="0px"
	 viewBox="0 0 375 375" style="enable-background:new 0 0 375 375;" xml:space="preserve">
<style type="text/css">
	.st0{fill:#FFFFFF;}
</style>
<g>
	<path class="st0" d="M295.25,108.36V246.1H74.07V108.36H295.25 M295.25,98.36H74.07c-5.52,0-10,4.48-10,10V246.1
		c0,5.52,4.48,10,10,10h221.18c5.52,0,10-4.48,10-10V108.36C305.25,102.84,300.77,98.36,295.25,98.36L295.25,98.36z"/>
</g>
<path class="st0" d="M333.09,261.35v8.53c0,4.9-3.97,8.87-8.87,8.87h-279c-4.97,0-9-4.03-9-9v-8.4c0-0.29,0.24-0.53,0.52-0.53
	h119.73c0.21,1.27,0.72,2.42,1.45,3.3c0.97,1.18,2.31,1.91,3.78,1.91h45.91c2.59,0,4.75-2.24,5.23-5.21h119.73
	C332.86,260.82,333.09,261.06,333.09,261.35z"/>
</svg>
