<?xml version="1.0" encoding="utf-8"?>
<!-- Generator: Adobe Illustrator 26.0.1, SVG Export Plug-In . SVG Version: 6.00 Build 0)  -->
<svg version="1.1" id="Lager_1" xmlns="http://www.w3.org/2000/svg" xmlns:xlink="http://www.w3.org/1999/xlink" x="0px" y="0px"
	 viewBox="0 0 375 375" style="enable-background:new 0 0 375 375;" xml:space="preserve">
<style type="text/css">
	.st0{fill:#FFFFFF;}
</style>
<g>
	<g>
		<path class="st0" d="M242.91,88.8v46.95H132.68v90.79H61.46V88.8H242.91 M242.91,78.8H61.46c-5.52,0-10,4.48-10,10v137.74
			c0,5.52,4.48,10,10,10h71.22c5.52,0,10-4.48,10-10v-80.79h100.23c5.52,0,10-4.48,10-10V88.8C252.91,83.28,248.43,78.8,242.91,78.8
			L242.91,78.8z"/>
	</g>
	<g>
		<path class="st0" d="M314.13,135.75V273.5H132.68v-46.96h110.23v-90.79H314.13 M314.13,125.75h-71.22c-5.52,0-10,4.48-10,10v80.79
			H132.68c-5.52,0-10,4.48-10,10v46.96c0,5.52,4.48,10,10,10h181.45c5.52,0,10-4.48,10-10V135.75
			C324.13,130.23,319.65,125.75,314.13,125.75L314.13,125.75z"/>
	</g>
</g>
</svg>
